<?xml version="1.0" encoding="utf-8"?>
<!-- Generator: Adobe Illustrator 26.4.1, SVG Export Plug-In . SVG Version: 6.00 Build 0)  -->
<svg version="1.1" id="Layer_1" xmlns="http://www.w3.org/2000/svg" xmlns:xlink="http://www.w3.org/1999/xlink" x="0px" y="0px"
	 viewBox="0 0 944.2 841.9" style="enable-background:new 0 0 944.2 841.9;" xml:space="preserve">
<style type="text/css">
	.st0{fill:transparent;}
	.st1{fill:#232936;}
	.st2{fill:#009280;}
	.st3{fill:#1B8079;}
	.st4{opacity:0.65;fill:#1A7D87;enable-background:new    ;}
	.st5{fill:#18776A;}
	.st6{fill:#1E8275;}
	.st7{fill:#083D3F;}
	.st8{opacity:0.17;fill:#063B3F;enable-background:new    ;}
	.st9{enable-background:new    ;}
	.st10{fill:#F2F9F9;}
	.st11{fill:#F6FBFE;}
	.st12{fill:#EBF5F4;}
</style>
<rect y="0" class="st0" width="944.2" height="841.9"/>
<path class="st1" d="M583,431.5c-0.4,0.1-0.7,0.2-1.1,0.2c0.1-0.3,0.2-0.7,0.5-0.8C582.7,430.8,582.9,431.2,583,431.5L583,431.5z"/>
<path class="st1" d="M331.6,432.2c-0.5,0.1-1,0-1.4-0.4C330.6,431.9,331.1,432,331.6,432.2z"/>
<path class="st1" d="M297.7,420.6c0.5,0,1,0.1,1.2,0.6C298.4,421.2,297.9,421.1,297.7,420.6z"/>
<path class="st1" d="M301.2,422.7c0.2,0.2,0.4,0.4,0.6,0.6C301.6,423.1,301.4,422.9,301.2,422.7z"/>
<path class="st1" d="M300.6,422.1c0.2,0.2,0.4,0.4,0.7,0.6C301,422.5,300.8,422.3,300.6,422.1z"/>
<path class="st1" d="M299.9,421.7c0.2,0.2,0.5,0.3,0.7,0.5C300.4,422,300.2,421.9,299.9,421.7z"/>
<path class="st1" d="M299.4,421.3c0.2,0.1,0.4,0.3,0.6,0.4C299.8,421.6,299.5,421.5,299.4,421.3z"/>
<path class="st1" d="M296.9,420.1c0.3,0.2,0.5,0.4,0.8,0.6C297.5,420.5,297.2,420.3,296.9,420.1z"/>
<g>
	<polygon class="st2" points="371.6,279.2 371.6,387.2 412.8,387.2 412.8,262 	"/>
	<polygon class="st3" points="453.3,315.2 491.1,286.9 491.8,387.2 453.3,387.2 	"/>
	<polygon class="st4" points="433.3,203.6 491,236.1 491,387.2 433.3,387.2 	"/>
	<polygon class="st5" points="497.9,294.2 497.9,387.2 527.2,387.2 527.2,308.6 	"/>
	<path class="st6" d="M462.5,308.3c-3.1,2.3-6.1,4.6-9.2,6.9v72c3.5,0,6.9,0,10.4,0C463.3,360.9,462.9,334.6,462.5,308.3z"/>
	<polygon class="st7" points="402.5,231.8 433.3,247.1 433.3,387.2 422.1,387.2 421.7,251.9 405.4,258.7 	"/>
	<path class="st8" d="M433.3,247.1l28.8,16.7c0.1,14.8,0.2,29.6,0.3,44.5c-3.1,2.3-6.1,4.6-9.2,6.9v72h-19.9L433.3,247.1
		L433.3,247.1z"/>
</g>
<g class="st9">
	<path class="st10" d="M292.4,478c-2.2-2.1-3.3-5.1-3.3-8.8v-39.9c0-3.6,1.1-6.5,3.3-8.6c2.2-2.1,5.2-3.1,9.1-3.1h21.4
		c6.4,0,11.4,1.5,14.9,4.5c3.5,3,5.3,7.3,5.3,12.8c0,3-0.8,5.7-2.5,8.1c-1.6,2.4-3.8,4.2-6.6,5.4v0.1c3.1,1.2,5.6,3,7.4,5.5
		c1.8,2.5,2.7,5.3,2.7,8.6c0,5.8-1.8,10.4-5.4,13.7c-3.6,3.3-8.5,5-14.8,5h-22.2C297.7,481.2,294.6,480.1,292.4,478z M323.3,445.1
		c3.5,0,6.2-0.9,8.1-2.7c2-1.8,3-4.3,3-7.6c0-3.5-1-6.1-3-7.9c-2-1.8-4.8-2.7-8.6-2.7h-20.7c-1.3,0-2.4,0.5-3.2,1.4
		s-1.2,2.1-1.2,3.6v15.8H323.3z M323.3,474.2c4,0,7-1,9.1-3c2.1-2,3.1-4.9,3.1-8.8c0-3.3-1.1-5.9-3.3-7.8c-2.2-1.8-5.2-2.8-9-2.8
		h-25.6v17.4c0,1.5,0.4,2.6,1.2,3.5s1.9,1.4,3.2,1.4H323.3z"/>
	<path class="st10" d="M439.8,479.1c-5-2-9.1-4.7-12.1-8.2c-0.6-0.8-0.9-1.5-0.9-2.3c0-1.2,0.5-2.2,1.5-3c0.7-0.5,1.4-0.8,2.1-0.8
		c1.1,0,2.2,0.6,3.4,1.7c2.6,2.7,5.8,4.7,9.7,6.2c3.9,1.5,8.1,2.2,12.7,2.2c4.9,0,8.6-0.9,11.3-2.7c2.7-1.8,4-4.3,4-7.5
		c0-3-1.3-5.4-4-7.2c-2.7-1.9-7.2-3.5-13.7-4.9c-8.9-2-15.3-4.5-19.3-7.6c-3.9-3-5.9-7-5.9-12c0-3.3,1-6.2,3-8.7
		c2-2.5,4.9-4.4,8.6-5.8c3.7-1.4,8-2,12.9-2c5.6,0,10.6,1,15,2.9c4.4,1.9,7.6,4.5,9.6,7.8c0.5,0.7,0.7,1.5,0.7,2.3
		c0,1.2-0.6,2.2-1.7,3c-0.5,0.4-1.2,0.5-1.9,0.5c-0.7,0-1.3-0.2-2-0.5c-0.7-0.3-1.2-0.8-1.6-1.3c-1.8-2.4-4.2-4.3-7.3-5.6
		c-3.1-1.3-6.7-2-10.8-2c-5.2,0-9.1,0.8-11.8,2.4c-2.7,1.6-4,4-4,7.1c0,1.9,0.5,3.5,1.6,4.9s2.9,2.6,5.4,3.6
		c2.5,1.1,5.9,2.1,10.3,3.1c9.2,2.1,15.7,4.7,19.7,7.9c4,3.1,6,7.2,6,12.1c0,3.5-1,6.6-3,9.1c-2,2.6-4.8,4.6-8.4,6
		c-3.6,1.4-7.9,2.1-12.7,2.1C450.3,482.1,444.8,481.1,439.8,479.1z"/>
	<path class="st10" d="M492.6,480.9c-0.8-0.8-1.1-1.8-1.1-3.1v-57c0-1.3,0.4-2.4,1.1-3.1c0.8-0.8,1.8-1.1,3.1-1.1
		c1.3,0,2.4,0.4,3.2,1.1c0.8,0.8,1.2,1.8,1.2,3.1v24.1h37.5v-24.1c0-1.3,0.4-2.4,1.2-3.1c0.8-0.8,1.8-1.1,3.2-1.1
		c1.3,0,2.3,0.4,3,1.1c0.8,0.8,1.1,1.8,1.1,3.1v57c0,1.3-0.4,2.4-1.1,3.1c-0.8,0.8-1.8,1.1-3,1.1c-1.3,0-2.4-0.4-3.2-1.1
		c-0.8-0.8-1.2-1.8-1.2-3.1v-25.8h-37.5v25.8c0,1.3-0.4,2.4-1.2,3.1c-0.8,0.8-1.9,1.1-3.2,1.1C494.4,482.1,493.4,481.7,492.6,480.9z
		"/>
</g>
<g class="st9">
	<path class="st11" d="M386.8,557.9v-8.4c0-1.7,0.5-3,1.5-4c1-0.9,2.4-1.4,4.2-1.4s3.2,0.5,4.2,1.4c1,0.9,1.5,2.3,1.5,4v8.4
		c0,0.4-0.2,0.6-0.5,0.6c-0.4,0-0.5-0.2-0.5-0.6v-8.4c0-1.4-0.4-2.5-1.2-3.2c-0.8-0.8-2-1.1-3.4-1.1s-2.6,0.4-3.4,1.1
		c-0.8,0.8-1.2,1.8-1.2,3.2v8.4c0,0.4-0.2,0.6-0.5,0.6C386.9,558.5,386.8,558.3,386.8,557.9z"/>
	<path class="st11" d="M402.3,557.2c-0.9-0.9-1.4-2.2-1.4-3.8c0-1,0.2-1.9,0.6-2.7c0.4-0.8,1-1.3,1.8-1.7c0.8-0.4,1.7-0.6,2.8-0.6
		c1,0,1.9,0.2,2.7,0.5c0.8,0.3,1.4,0.8,1.8,1.4s0.7,1.3,0.7,2c0,0.5-0.1,0.9-0.4,1.2c-0.3,0.3-0.6,0.4-1.1,0.4H402
		c0,1.2,0.4,2.1,1.1,2.7c0.7,0.7,1.8,1,3.1,1c0.8,0,1.6-0.1,2.1-0.3c0.6-0.2,1.1-0.5,1.6-1c0.2-0.2,0.4-0.3,0.5-0.3
		c0.1,0,0.1,0,0.2,0.1c0.1,0.1,0.2,0.2,0.2,0.4c0,0.1,0,0.2-0.1,0.3c-0.5,0.6-1.1,1-1.9,1.3c-0.8,0.3-1.6,0.4-2.6,0.4
		C404.5,558.5,403.2,558.1,402.3,557.2z M409.6,553c0.3,0,0.5-0.1,0.6-0.2c0.1-0.1,0.2-0.3,0.2-0.6c0-0.5-0.2-1-0.5-1.5
		c-0.4-0.4-0.8-0.8-1.5-1c-0.6-0.2-1.3-0.4-2.1-0.4c-1.3,0-2.4,0.3-3.1,1c-0.7,0.6-1.1,1.5-1.1,2.7H409.6z"/>
	<path class="st11" d="M415.6,558.1c-0.3-0.3-0.5-0.6-0.6-1.1l-1.6-8.2c0-0.1,0-0.2,0.1-0.3c0.1-0.1,0.2-0.2,0.4-0.2
		c0.2,0,0.4,0,0.4,0.1s0.1,0.2,0.2,0.3l1.6,8c0.1,0.5,0.3,0.8,0.7,0.8c0.2,0,0.4-0.1,0.5-0.2c0.1-0.1,0.2-0.3,0.2-0.6l1.2-7.2
		c0.1-0.3,0.2-0.6,0.5-0.9c0.3-0.2,0.5-0.4,0.9-0.4c0.3,0,0.6,0.1,0.9,0.4c0.3,0.2,0.4,0.5,0.5,0.9l1.2,7.2c0,0.3,0.1,0.5,0.2,0.6
		c0.1,0.1,0.3,0.2,0.5,0.2c0.4,0,0.6-0.3,0.7-0.8l1.6-8c0-0.2,0.1-0.3,0.2-0.3s0.2-0.1,0.4-0.1c0.1,0,0.3,0,0.4,0.2
		c0.1,0.1,0.1,0.2,0.1,0.3l-1.6,8.2c-0.1,0.4-0.3,0.8-0.6,1.1c-0.3,0.3-0.7,0.4-1.1,0.4c-1,0-1.5-0.5-1.7-1.5l-1.2-7.2
		c-0.1-0.4-0.2-0.6-0.4-0.6c-0.2,0-0.4,0.2-0.4,0.6l-1.2,7.2c-0.2,1-0.7,1.5-1.7,1.5C416.3,558.5,415.9,558.4,415.6,558.1z"/>
</g>
<g class="st9">
	<path class="st11" d="M437.5,557.6c-1-0.6-1.8-1.4-2.4-2.5c-0.6-1.1-0.8-2.3-0.8-3.8c0-1.4,0.3-2.7,0.8-3.8
		c0.6-1.1,1.4-1.9,2.4-2.5c1-0.6,2.2-0.9,3.5-0.9c1.1,0,2.1,0.2,3.1,0.6c0.9,0.4,1.7,0.9,2.2,1.6c0.1,0.1,0.1,0.2,0.1,0.4
		c0,0.2-0.1,0.3-0.2,0.4c-0.1,0.1-0.2,0.1-0.3,0.1c-0.2,0-0.3-0.1-0.4-0.2c-0.4-0.6-1-1-1.8-1.3c-0.8-0.3-1.7-0.5-2.7-0.5
		c-1.2,0-2.2,0.3-3,0.8c-0.9,0.5-1.5,1.2-2,2.2c-0.5,0.9-0.7,2-0.7,3.3c0,1.3,0.2,2.4,0.7,3.3c0.5,0.9,1.1,1.6,2,2.1
		c0.9,0.5,1.9,0.8,3,0.8c1.1,0,2-0.2,2.8-0.5c0.8-0.3,1.4-0.7,1.9-1.3c0.1-0.1,0.3-0.2,0.5-0.2c0.1,0,0.2,0,0.3,0.1
		c0.1,0.1,0.2,0.2,0.2,0.4c0,0.1,0,0.2-0.1,0.3c-0.5,0.7-1.3,1.2-2.3,1.6c-1,0.4-2.1,0.6-3.2,0.6
		C439.7,558.5,438.5,558.2,437.5,557.6z"/>
</g>
<g class="st9">
	<path class="st11" d="M450.8,557.8c-0.8-0.5-1.4-1.1-1.8-1.9c-0.4-0.8-0.6-1.6-0.6-2.5c0-0.9,0.2-1.7,0.6-2.5
		c0.4-0.8,1-1.4,1.8-1.9c0.8-0.5,1.8-0.7,2.9-0.7c1.2,0,2.1,0.2,2.9,0.7c0.8,0.5,1.4,1.1,1.8,1.9s0.6,1.6,0.6,2.5
		c0,0.9-0.2,1.7-0.6,2.5s-1,1.4-1.8,1.9c-0.8,0.5-1.8,0.7-2.9,0.7C452.5,558.5,451.6,558.3,450.8,557.8z M456.8,556.5
		c0.8-0.7,1.2-1.7,1.2-3.1c0-1.3-0.4-2.3-1.2-3c-0.8-0.7-1.8-1.1-3.1-1.1c-1.3,0-2.3,0.4-3.1,1.1c-0.8,0.7-1.2,1.7-1.2,3
		c0,1.3,0.4,2.3,1.2,3.1c0.8,0.7,1.8,1.1,3.1,1.1C455,557.6,456,557.2,456.8,556.5z"/>
</g>
<g class="st9">
	<path class="st11" d="M461.3,557.9V549c0-0.4,0.2-0.6,0.5-0.6c0.3,0,0.5,0.2,0.5,0.6v1.4c0.5-0.7,1.1-1.2,1.8-1.5
		c0.7-0.4,1.5-0.5,2.3-0.5c1.3,0,2.2,0.3,2.9,1s1,1.6,1,2.9v5.6c0,0.4-0.2,0.6-0.5,0.6c-0.3,0-0.5-0.2-0.5-0.6v-5.6
		c0-1-0.2-1.8-0.7-2.3c-0.5-0.5-1.2-0.7-2.2-0.7c-0.8,0-1.6,0.2-2.2,0.5c-0.6,0.3-1.1,0.8-1.5,1.4c-0.3,0.6-0.5,1.3-0.5,2.1v4.7
		c0,0.4-0.2,0.6-0.5,0.6C461.5,558.5,461.3,558.3,461.3,557.9z"/>
	<path class="st11" d="M475.4,557.9c-0.8-0.4-1.4-1-1.8-1.8c-0.4-0.8-0.7-1.7-0.7-2.7c0-1,0.2-1.9,0.7-2.7c0.4-0.8,1-1.4,1.8-1.8
		c0.8-0.4,1.7-0.6,2.7-0.6c1.9,0,3.4,0.5,4.3,1.6c0.1,0.1,0.1,0.2,0.1,0.3c0,0.2-0.1,0.3-0.2,0.4c-0.1,0.1-0.2,0.1-0.3,0.1
		c-0.2,0-0.3-0.1-0.5-0.2c-0.4-0.4-0.9-0.7-1.4-0.9s-1.2-0.3-2.1-0.3c-1.3,0-2.4,0.4-3.1,1.1c-0.7,0.7-1.1,1.7-1.1,3.1
		s0.4,2.4,1.1,3.1s1.8,1.1,3.1,1.1c1.6,0,2.7-0.4,3.5-1.2c0.1-0.1,0.3-0.2,0.5-0.2c0.1,0,0.2,0,0.3,0.1c0.1,0.1,0.2,0.2,0.2,0.4
		c0,0.1-0.1,0.2-0.2,0.3c-0.6,0.5-1.2,1-1.9,1.2c-0.7,0.3-1.5,0.4-2.3,0.4C477.1,558.5,476.2,558.3,475.4,557.9z"/>
	<path class="st11" d="M485.9,557.2c-0.9-0.9-1.4-2.2-1.4-3.8c0-1,0.2-1.9,0.6-2.7c0.4-0.8,1-1.3,1.8-1.7c0.8-0.4,1.7-0.6,2.8-0.6
		c1,0,1.9,0.2,2.7,0.5c0.8,0.3,1.4,0.8,1.8,1.4c0.4,0.6,0.7,1.3,0.7,2c0,0.5-0.1,0.9-0.4,1.2c-0.3,0.3-0.6,0.4-1.1,0.4h-7.9
		c0,1.2,0.4,2.1,1.1,2.7s1.8,1,3.1,1c0.8,0,1.5-0.1,2.1-0.3s1.1-0.5,1.6-1c0.2-0.2,0.4-0.3,0.5-0.3c0.1,0,0.1,0,0.2,0.1
		c0.1,0.1,0.2,0.2,0.2,0.4c0,0.1,0,0.2-0.1,0.3c-0.5,0.6-1.1,1-1.9,1.3c-0.8,0.3-1.6,0.4-2.6,0.4
		C488.2,558.5,486.9,558.1,485.9,557.2z M493.2,553c0.3,0,0.5-0.1,0.6-0.2c0.1-0.1,0.2-0.3,0.2-0.6c0-0.5-0.2-1-0.5-1.5
		s-0.8-0.8-1.5-1c-0.6-0.2-1.3-0.4-2.1-0.4c-1.3,0-2.4,0.3-3.1,1c-0.7,0.6-1.1,1.5-1.1,2.7H493.2z"/>
</g>
<g class="st9">
	<path class="st11" d="M497.7,563.7V549c0-0.4,0.2-0.6,0.5-0.6c0.3,0,0.5,0.2,0.5,0.6v1.6c1-1.5,2.5-2.3,4.6-2.3
		c1.6,0,2.9,0.4,3.8,1.3s1.4,2.1,1.4,3.7c0,1.1-0.2,2-0.6,2.8c-0.4,0.8-1,1.4-1.8,1.8c-0.8,0.4-1.7,0.6-2.8,0.6
		c-1,0-1.8-0.2-2.6-0.5c-0.7-0.4-1.4-0.9-2-1.7l0,7.4c0,0.4-0.2,0.6-0.5,0.6C497.9,564.3,497.7,564.1,497.7,563.7z M506.4,556.4
		c0.7-0.8,1.1-1.8,1.1-3.2c0-1.3-0.4-2.3-1.1-3c-0.7-0.7-1.8-1-3.1-1c-1.4,0-2.6,0.4-3.4,1.1c-0.8,0.7-1.2,1.7-1.2,3
		c0,0.8,0.2,1.6,0.6,2.2c0.4,0.6,0.9,1.1,1.6,1.5s1.5,0.5,2.4,0.5C504.7,557.6,505.7,557.2,506.4,556.4z"/>
</g>
<g class="st9">
	<path class="st11" d="M516.8,556.9c0,0.1,0,0.2-0.1,0.4c-0.3,0.4-0.6,0.7-1.1,0.9c-0.5,0.2-1,0.4-1.5,0.4c-0.8,0-1.4-0.3-1.9-0.8
		c-0.5-0.5-0.7-1.2-0.7-2v-6.3h-1.2c-0.2,0-0.4,0-0.5-0.1c-0.1-0.1-0.1-0.2-0.1-0.4c0-0.3,0.2-0.4,0.6-0.4h1.2V545
		c0-0.4,0.2-0.6,0.5-0.6c0.3,0,0.5,0.2,0.5,0.6v3.6h3c0.4,0,0.6,0.1,0.6,0.4c0,0.2,0,0.3-0.1,0.4c-0.1,0.1-0.2,0.1-0.5,0.1h-3v6.4
		c0,1.2,0.5,1.8,1.6,1.8c0.4,0,0.7-0.1,1-0.2c0.3-0.1,0.5-0.3,0.8-0.6c0.2-0.2,0.3-0.3,0.5-0.3c0.1,0,0.2,0,0.3,0.1
		C516.7,556.7,516.8,556.8,516.8,556.9z"/>
</g>
<g class="st9">
	<path class="st10" d="M300.1,529.1c-2.6-1.5-4.6-3.6-6-6.3c-1.4-2.7-2.1-5.9-2.1-9.4c0-3.6,0.7-6.7,2.1-9.5c1.4-2.7,3.4-4.8,6-6.3
		c2.6-1.5,5.6-2.2,9-2.2c2.8,0,5.4,0.5,7.8,1.4c2.4,1,4.2,2.3,5.6,4c0.3,0.3,0.4,0.7,0.4,1c0,0.5-0.2,0.8-0.6,1.1
		c-0.2,0.2-0.5,0.3-0.9,0.3c-0.3,0-0.5-0.1-0.8-0.2c-0.2-0.1-0.4-0.3-0.6-0.5c-1.1-1.4-2.5-2.4-4.5-3.2c-1.9-0.8-4.1-1.2-6.5-1.2
		c-2.8,0-5.3,0.6-7.4,1.9s-3.7,3-4.8,5.3c-1.1,2.3-1.7,5-1.7,8.1c0,3.1,0.6,5.8,1.7,8c1.1,2.3,2.7,4,4.8,5.2s4.6,1.8,7.4,1.8
		c2.6,0,4.9-0.4,6.9-1.1c2-0.8,3.5-1.8,4.6-3.2c0.4-0.4,0.9-0.6,1.4-0.6c0.4,0,0.7,0.1,0.9,0.3c0.4,0.3,0.6,0.7,0.6,1.1
		c0,0.4-0.1,0.7-0.4,1c-1.4,1.7-3.3,3-5.8,4c-2.5,1-5.2,1.5-8.2,1.5C305.7,531.3,302.7,530.6,300.1,529.1z"/>
</g>
<g class="st9">
	<path class="st10" d="M333.5,529.5c-2-1.2-3.6-2.8-4.6-4.7c-1-2-1.5-4-1.5-6.3c0-2.2,0.5-4.3,1.5-6.3c1-1.9,2.5-3.5,4.6-4.7
		c2-1.2,4.5-1.8,7.4-1.8s5.4,0.6,7.4,1.8c2,1.2,3.5,2.8,4.5,4.7c1,2,1.5,4,1.5,6.3c0,2.2-0.5,4.3-1.5,6.3c-1,1.9-2.5,3.5-4.5,4.7
		c-2,1.2-4.5,1.8-7.4,1.8S335.6,530.7,333.5,529.5z M348.4,525.9c1.9-1.8,2.8-4.2,2.8-7.3c0-3.1-0.9-5.6-2.8-7.3
		c-1.9-1.8-4.4-2.7-7.5-2.7s-5.6,0.9-7.5,2.7c-1.9,1.8-2.8,4.2-2.8,7.3c0,3.1,0.9,5.6,2.8,7.3c1.9,1.8,4.4,2.6,7.5,2.6
		S346.5,527.6,348.4,525.9z"/>
</g>
<g class="st9">
	<path class="st10" d="M360.2,530.8c-0.3-0.3-0.4-0.8-0.4-1.3v-21.9c0-1.2,0.5-1.8,1.6-1.8c0.5,0,0.9,0.2,1.1,0.5
		c0.3,0.3,0.4,0.8,0.4,1.3v3.2c1.2-1.6,2.7-2.9,4.5-3.8c1.8-0.9,3.7-1.3,5.8-1.3c3.2,0,5.6,0.9,7.3,2.6c1.7,1.7,2.5,4.2,2.5,7.5
		v13.7c0,0.6-0.1,1-0.4,1.3c-0.3,0.3-0.7,0.5-1.2,0.5c-1,0-1.5-0.6-1.5-1.8v-13.7c0-2.5-0.6-4.3-1.7-5.5c-1.1-1.2-2.9-1.8-5.2-1.8
		c-3,0-5.5,0.9-7.3,2.7c-1.8,1.8-2.8,4.1-2.8,7v11.2c0,0.6-0.1,1-0.4,1.3c-0.3,0.3-0.6,0.5-1.1,0.5S360.5,531.1,360.2,530.8z"/>
	<path class="st10" d="M394.1,529.9c-2-0.9-3.6-2.2-4.8-3.7c-0.2-0.3-0.3-0.6-0.3-0.9c0-0.3,0.1-0.5,0.3-0.8
		c0.2-0.2,0.4-0.4,0.7-0.5c0.3-0.1,0.5-0.1,0.6-0.1c0.2,0,0.4,0.1,0.6,0.2c0.2,0.2,0.4,0.4,0.8,0.8c2.1,2.3,5,3.5,8.6,3.5
		c1.8,0,3.3-0.3,4.5-0.9c1.2-0.6,1.8-1.5,1.8-2.8c0-0.9-0.2-1.6-0.7-2.1c-0.5-0.5-1.2-1-2.2-1.4s-2.6-1-4.9-1.8
		c-2-0.7-3.6-1.3-4.8-1.9c-1.2-0.6-2.1-1.3-2.8-2.2c-0.7-0.9-1-2-1-3.3c0-1.9,0.8-3.4,2.5-4.5c1.7-1.2,3.9-1.8,6.6-1.8
		c2,0,3.8,0.4,5.6,1.1s3.1,1.7,3.9,2.8c0.2,0.3,0.4,0.6,0.4,0.9c0,0.5-0.2,0.8-0.7,1.1c-0.3,0.2-0.6,0.2-0.9,0.2
		c-0.5,0-0.9-0.2-1.3-0.7c-0.9-0.9-1.9-1.6-2.9-2c-1-0.4-2.4-0.7-4.1-0.7c-1.9,0-3.3,0.3-4.3,0.9c-1,0.6-1.5,1.5-1.5,2.7
		c0,0.9,0.2,1.5,0.7,2c0.4,0.5,1.1,0.9,1.9,1.2c0.8,0.3,2.2,0.8,4.3,1.5c2.4,0.8,4.2,1.5,5.6,2.2c1.3,0.7,2.3,1.5,2.9,2.3
		c0.6,0.9,0.9,2,0.9,3.2c0,2-0.9,3.6-2.6,4.8c-1.8,1.2-4,1.8-6.7,1.8C398.3,531.3,396.1,530.8,394.1,529.9z"/>
	<path class="st10" d="M432.3,527.1c0,0.3-0.1,0.7-0.4,1c-0.7,1-1.6,1.7-2.8,2.3c-1.2,0.6-2.4,0.9-3.8,0.9c-2.1,0-3.8-0.7-5-2
		c-1.2-1.3-1.8-3-1.8-5.2V509h-2.8c-1.2,0-1.8-0.5-1.8-1.4c0-0.9,0.6-1.3,1.8-1.3h2.8v-8.8c0-0.6,0.1-1,0.4-1.3
		c0.3-0.3,0.6-0.5,1.1-0.5s0.9,0.2,1.2,0.5c0.3,0.3,0.4,0.8,0.4,1.3v8.8h7.1c1.2,0,1.8,0.4,1.8,1.3c0,0.9-0.6,1.4-1.8,1.4h-7.1v15.4
		c0,2.7,1.3,4.1,3.8,4.1c0.9,0,1.6-0.2,2.3-0.5c0.7-0.3,1.3-0.8,1.9-1.5c0.5-0.5,0.9-0.7,1.3-0.7c0.3,0,0.6,0.1,0.9,0.3
		C432.1,526.4,432.3,526.7,432.3,527.1z"/>
</g>
<g class="st9">
	<path class="st10" d="M438.2,530.8c-0.3-0.3-0.4-0.8-0.4-1.3v-21.9c0-1.2,0.5-1.8,1.6-1.8c0.5,0,0.9,0.2,1.1,0.5
		c0.3,0.3,0.4,0.8,0.4,1.3v3.2c1.2-1.5,2.5-2.7,4.1-3.4c1.6-0.8,3.4-1.1,5.5-1.1h1.2c0.6,0,1,0.1,1.3,0.4c0.3,0.2,0.5,0.6,0.5,1
		c0,0.9-0.6,1.3-1.8,1.3h-1.3c-3,0-5.3,0.8-7,2.5c-1.7,1.7-2.6,3.9-2.6,6.7v11.2c0,0.6-0.1,1-0.4,1.3c-0.3,0.3-0.6,0.5-1.1,0.5
		S438.4,531.1,438.2,530.8z"/>
</g>
<g class="st9">
	<path class="st10" d="M460.5,528.5c-1.8-1.9-2.8-4.4-2.8-7.7v-13.2c0-0.6,0.1-1,0.4-1.3c0.3-0.3,0.7-0.5,1.2-0.5
		c1,0,1.5,0.6,1.5,1.8v13.2c0,2.5,0.6,4.4,2,5.7c1.3,1.3,3.1,2,5.5,2c1.9,0,3.5-0.4,5-1.2c1.5-0.8,2.6-2,3.4-3.4
		c0.8-1.5,1.2-3.1,1.2-5v-11.2c0-0.6,0.1-1,0.4-1.3c0.3-0.3,0.7-0.5,1.2-0.5c1,0,1.5,0.6,1.5,1.8v21.9c0,1.2-0.5,1.8-1.5,1.8
		c-0.5,0-0.9-0.2-1.2-0.5c-0.3-0.3-0.4-0.8-0.4-1.3v-3.2c-1.2,1.6-2.7,2.9-4.4,3.8c-1.7,0.9-3.5,1.3-5.4,1.3
		C464.9,531.3,462.4,530.4,460.5,528.5z"/>
</g>
<g class="st9">
	<path class="st10" d="M493.5,529.7c-2-1.1-3.6-2.6-4.7-4.5s-1.7-4.2-1.7-6.7s0.6-4.8,1.7-6.7s2.7-3.4,4.7-4.5s4.3-1.6,6.9-1.6
		c5,0,8.6,1.3,10.8,4c0.3,0.3,0.4,0.7,0.4,1c0,0.4-0.2,0.8-0.7,1.2c-0.2,0.2-0.5,0.3-0.8,0.3c-0.2,0-0.5-0.1-0.7-0.2
		s-0.5-0.3-0.6-0.5c-0.9-1-2.1-1.8-3.5-2.3c-1.4-0.5-3-0.8-4.9-0.8c-3.2,0-5.7,0.9-7.5,2.6s-2.6,4.2-2.6,7.4c0,3.2,0.9,5.6,2.7,7.4
		c1.8,1.8,4.2,2.6,7.4,2.6c1.8,0,3.4-0.3,4.9-0.8c1.5-0.5,2.6-1.3,3.6-2.3c0.5-0.5,0.9-0.7,1.4-0.7c0.3,0,0.6,0.1,0.8,0.3
		c0.4,0.4,0.5,0.8,0.5,1.2c0,0.3-0.1,0.6-0.4,1c-1.6,1.4-3.2,2.4-5,3.1s-3.7,1-5.8,1C497.8,531.3,495.5,530.8,493.5,529.7z"/>
</g>
<g class="st9">
	<path class="st10" d="M532.8,527.1c0,0.3-0.1,0.7-0.4,1c-0.7,1-1.6,1.7-2.8,2.3s-2.5,0.9-3.8,0.9c-2.1,0-3.8-0.7-5-2
		c-1.2-1.3-1.8-3-1.8-5.2V509h-2.8c-1.2,0-1.8-0.5-1.8-1.4c0-0.9,0.6-1.3,1.8-1.3h2.8v-8.8c0-0.6,0.1-1,0.4-1.3
		c0.3-0.3,0.7-0.5,1.2-0.5s0.9,0.2,1.2,0.5c0.3,0.3,0.4,0.8,0.4,1.3v8.8h7.2c1.2,0,1.8,0.4,1.8,1.3c0,0.9-0.6,1.4-1.8,1.4h-7.2v15.4
		c0,2.7,1.3,4.1,3.8,4.1c0.9,0,1.6-0.2,2.3-0.5s1.3-0.8,1.9-1.5c0.5-0.5,0.9-0.7,1.3-0.7c0.3,0,0.6,0.1,0.9,0.3
		C532.6,526.4,532.8,526.7,532.8,527.1z"/>
	<path class="st10" d="M539,499.6c-0.5-0.5-0.7-1-0.7-1.6s0.2-1.2,0.7-1.7c0.5-0.5,1-0.7,1.7-0.7c0.6,0,1.2,0.2,1.7,0.7
		s0.8,1,0.8,1.6c0,0.6-0.2,1.1-0.8,1.6s-1.1,0.7-1.7,0.7C540,500.3,539.4,500,539,499.6z M539.5,530.8c-0.3-0.3-0.4-0.8-0.4-1.3
		v-21.9c0-1.2,0.5-1.8,1.5-1.8c0.5,0,0.9,0.2,1.2,0.5c0.3,0.3,0.4,0.8,0.4,1.3v21.9c0,0.6-0.1,1-0.4,1.3c-0.3,0.3-0.7,0.5-1.2,0.5
		S539.8,531.1,539.5,530.8z"/>
</g>
<g class="st9">
	<path class="st10" d="M555.4,529.5c-2-1.2-3.5-2.8-4.5-4.7c-1-2-1.5-4-1.5-6.3c0-2.2,0.5-4.3,1.5-6.3c1-1.9,2.5-3.5,4.5-4.7
		s4.5-1.8,7.4-1.8c2.9,0,5.4,0.6,7.4,1.8s3.5,2.8,4.5,4.7c1,2,1.5,4,1.5,6.3c0,2.2-0.5,4.3-1.5,6.3c-1,1.9-2.5,3.5-4.5,4.7
		c-2,1.2-4.5,1.8-7.4,1.8C559.9,531.3,557.4,530.7,555.4,529.5z M570.3,525.9c1.9-1.8,2.8-4.2,2.8-7.3c0-3.1-0.9-5.6-2.8-7.3
		c-1.9-1.8-4.4-2.7-7.5-2.7c-3.1,0-5.6,0.9-7.5,2.7c-1.9,1.8-2.8,4.2-2.8,7.3c0,3.1,0.9,5.6,2.8,7.3c1.9,1.8,4.4,2.6,7.5,2.6
		C565.9,528.5,568.4,527.6,570.3,525.9z"/>
</g>
<g class="st9">
	<path class="st10" d="M582.1,530.8c-0.3-0.3-0.4-0.8-0.4-1.3v-21.9c0-1.2,0.5-1.8,1.6-1.8c0.5,0,0.9,0.2,1.1,0.5
		c0.3,0.3,0.4,0.8,0.4,1.3v3.2c1.2-1.6,2.7-2.9,4.5-3.8c1.8-0.9,3.7-1.3,5.8-1.3c3.2,0,5.6,0.9,7.3,2.6c1.7,1.7,2.5,4.2,2.5,7.5
		v13.7c0,0.6-0.1,1-0.4,1.3s-0.7,0.5-1.2,0.5c-1,0-1.5-0.6-1.5-1.8v-13.7c0-2.5-0.6-4.3-1.7-5.5c-1.1-1.2-2.9-1.8-5.2-1.8
		c-3,0-5.5,0.9-7.3,2.7c-1.8,1.8-2.8,4.1-2.8,7v11.2c0,0.6-0.1,1-0.4,1.3s-0.6,0.5-1.1,0.5S582.3,531.1,582.1,530.8z"/>
</g>
<path class="st12" d="M355.7,455.3c0-6.7-0.2-13.4,0-20.1c0.3-10.8,7.2-18.2,17.2-18.4c8.1-0.2,16.3-0.3,24.4,0
	c10.1,0.4,16.9,7.7,17.1,18.5c0.2,13.4,0,26.9,0.1,40.3c0,3.5-1,4.8-4.4,4.8c-3.8,0.1-4-2-4.1-5.1c-0.4-13-0.5-13-12.7-13
	c-7.9,0-15.9,0.2-23.8-0.1c-4.6-0.2-6.1,1.6-5.6,6.4c0.3,2.3-0.1,4.6,0.1,6.9c0.2,3.4-0.5,5-4.2,5c-3.5-0.1-4.3-1.6-4.2-5
	C355.8,468.7,355.7,462,355.7,455.3C355.7,455.3,355.7,455.3,355.7,455.3L355.7,455.3z M385.5,453.3L385.5,453.3
	c5.5,0,11.1,0,16.6,0c1.7,0,3.8,0.3,3.9-2.4c0-6.2,0.4-12.5-0.6-18.6c-0.5-3.3-3.4-6.4-7.5-6.4c-8.5,0-17.1-0.1-25.6,0
	c-5.5,0.1-7.9,3.7-8.2,9.3c-0.1,2.5-0.2,5.1-0.2,7.6c0.1,7,3.4,10.5,10,10.5C377.8,453.3,381.6,453.3,385.5,453.3L385.5,453.3z"/>
<path class="st12" d="M558,456.3c0-6.9-0.2-13.8,0-20.6c0.3-11,7-18.6,16.7-18.9c7.9-0.2,15.8-0.3,23.7,0c9.8,0.4,16.4,7.9,16.6,19
	c0.2,13.8,0,27.5,0.1,41.3c0,3.6-1,4.9-4.3,5c-3.7,0.1-3.9-2-4-5.2c-0.4-13.3-0.5-13.3-12.3-13.3c-7.7,0-15.4,0.3-23-0.1
	c-4.5-0.2-6,1.7-5.4,6.5c0.2,2.3-0.1,4.8,0.1,7.1c0.2,3.4-0.5,5.2-4,5.1c-3.4-0.1-4.2-1.6-4.1-5.1C558.1,470.1,558,463.2,558,456.3
	C558,456.3,558,456.3,558,456.3L558,456.3z M586.9,454.2L586.9,454.2c5.4,0,10.8,0,16.1,0c1.6,0,3.7,0.3,3.7-2.4
	c0-6.4,0.4-12.9-0.5-19.1c-0.5-3.4-3.3-6.5-7.2-6.5c-8.3,0-16.6-0.1-24.8,0c-5.3,0.1-7.7,3.8-8,9.5c-0.1,2.6-0.2,5.2-0.2,7.8
	c0.1,7.1,3.3,10.7,9.8,10.7C579.4,454.2,583.2,454.2,586.9,454.2L586.9,454.2z"/>
</svg>
